# xmcd
#
# Track frame offsets: 
#        150
#        13834
#        27898
#        42510
#        56747
#        69612
#        84220
#        96233
#        110890
#        124342
#        136418
#        148219
#        162425
#        176256
#        190523
#
# Disc length: 2733 seconds
#
# Revision: 2
# Processed by: cddbd v1.5.2PL0 Copyright (c) Steve Scherf et al.
# Submitted via: ExactAudioCopyFreeDBPlugin 1.0
#
DISCID=d70aab0f
DTITLE=John Lee Hooker - Past Perfect, Disc 04: Women in My Life
DYEAR=2001
DGENRE=Blues
TTITLE0=Miss Rosie Mae
TTITLE1=Highway Blues
TTITLE2=Don't Go Baby
TTITLE3=The Numbers
TTITLE4=Weeping Willow Blues
TTITLE5=Forgive Me
TTITLE6=Howlin' Wolf
TTITLE7=Playing the Races
TTITLE8=Wednesday Evening
TTITLE9=Let Your Daddy Ride
TTITLE10=Queen Bee
TTITLE11=I'm in the Mood
TTITLE12=Tease Me Baby
TTITLE13=Turn over a New Leaf
TTITLE14=Women in My Life
EXTD=
EXTT0=
EXTT1=
EXTT2=
EXTT3=
EXTT4=
EXTT5=
EXTT6=
EXTT7=
EXTT8=
EXTT9=
EXTT10=
EXTT11=
EXTT12=
EXTT13=
EXTT14=
PLAYORDER=
